<?xml version="1.0" encoding="utf-8"?>
<svg viewBox="0 0 500 500" xmlns="http://www.w3.org/2000/svg">
  <path style="stroke: rgb(0, 0, 0); fill: rgb(168, 235, 122);" d="M 22.963 108.191 L 47.19 109.501 L 73.381 114.739 L 179.455 150.752 L 203.682 141.585 L 246.897 136.347 L 294.041 139.621 L 322.196 148.788 L 387.354 131.384 L 445.949 109.501 L 479.998 110.156 L 466.902 144.859 L 449.878 144.204 L 443.33 151.407 L 446.604 169.086 L 390.293 233.909 L 377.198 284.327 C 377.198 284.327 360.828 324.268 360.828 326.232 C 360.828 328.196 324.815 357.007 324.815 357.007 L 282.255 372.067 L 241.482 374.918 L 206.068 370.621 L 170.943 350.459 C 170.943 350.459 145.406 325.578 145.406 324.923 C 145.406 324.268 132.906 303.421 132.906 303.421 L 121.18 267.743 L 109.958 233.724 C 109.958 233.724 93.968 212.391 93.313 211.737 C 92.658 211.083 72.726 186.765 72.726 186.765 C 72.726 186.765 50.464 157.3 49.809 157.3 C 49.154 157.3 24.927 123.906 24.927 123.251 C 24.927 122.596 21.653 106.227 22.963 108.191 Z" transform="matrix(1, 0, 0, 1, 0, 2.842170943040401e-14)"/>
  <g transform="matrix(0.37174099683761597, 0, 0, -0.37174099683761597, 14.386548042297392, 382.8436279296875)" fill="#000000" stroke="none" style="">
    <path d="M10 724 c0 -33 58 -118 164 -237 84 -93 88 -100 103 -172 9 -42 30 -103 47 -137 26 -51 42 -70 94 -104 76 -52 146 -68 257 -61 93 5 133 20 208 75 44 33 59 52 80 104 15 35 33 94 42 131 14 63 21 75 95 158 44 49 80 91 80 93 0 3 -5 17 -10 32 -10 26 -10 26 20 21 27 -6 32 -2 55 37 14 23 25 52 25 64 0 20 -5 22 -53 22 -40 0 -91 -14 -202 -55 -81 -30 -157 -55 -169 -55 -11 0 -43 7 -70 15 -63 19 -209 19 -272 0 -27 -8 -59 -15 -70 -15 -12 0 -88 25 -169 55 -111 41 -162 55 -202 55 -50 0 -53 -1 -53 -26z m1221 -37 c-11 -18 -29 -33 -40 -35 -27 -4 -43 -26 -45 -60 -1 -21 -24 -53 -75 -110 -69 -77 -74 -85 -90 -159 -28 -122 -54 -174 -111 -216 -133 -99 -306 -103 -447 -9 -58 38 -95 94 -109 168 -5 21 -9 41 -9 44 -23 89 -31 102 -108 187 -90 99 -170 210 -161 225 10 16 101 -1 169 -31 52 -23 232 -81 245 -78 8 1 21 6 28 11 49 30 262 27 328 -5 26 -13 65 -7 127 20 26 11 47 18 47 14 0 -3 6 -1 13 4 6 5 39 18 72 28 33 10 65 21 70 24 27 17 81 27 98 19 17 -9 17 -11 -2 -41z"/>
  </g>
</svg>